<svg xmlns="http://www.w3.org/2000/svg" viewBox="0 0 75 109.03750000000001" x="0px" y="0px"><title>air</title><path d="M13.31,12.32a1.46,1.46,0,0,1-.62-2,1.61,1.61,0,0,1,2.12-.6c.05,0,5.77,2.94,17.22,2.94,7.81,0,17.38-3,17.47-3,.41-.13,10.14-3.2,18.46-3.2,12.24,0,18.46,3.17,18.72,3.31a1.46,1.46,0,0,1,.63,2,1.6,1.6,0,0,1-2.12.6c-.06,0-5.87-2.94-17.23-2.94-7.81,0-17.38,3-17.47,3-.41.13-10.14,3.2-18.46,3.2C19.79,15.63,13.57,12.45,13.31,12.32ZM32,31.12c8.33,0,18.05-3.07,18.46-3.2.1,0,9.66-3,17.47-3,11.35,0,17.17,2.92,17.23,2.94a1.6,1.6,0,0,0,2.12-.6,1.46,1.46,0,0,0-.63-2C86.43,25,80.21,21.88,68,21.88c-8.33,0-18.05,3.07-18.46,3.2-.1,0-9.66,3-17.47,3-11.45,0-17.16-2.91-17.22-2.94a1.61,1.61,0,0,0-2.12.6,1.46,1.46,0,0,0,.62,2C13.57,27.94,19.79,31.12,32,31.12Zm0,15.63c8.33,0,18.05-3.07,18.46-3.2.1,0,9.66-3,17.47-3,11.35,0,17.17,2.92,17.23,2.94a1.6,1.6,0,0,0,2.12-.6,1.46,1.46,0,0,0-.63-2c-.26-.13-6.48-3.31-18.72-3.31-8.33,0-18.05,3.07-18.46,3.2-.1,0-9.66,3-17.47,3-11.45,0-17.16-2.91-17.22-2.94a1.61,1.61,0,0,0-2.12.6,1.46,1.46,0,0,0,.62,2C13.57,43.57,19.79,46.74,32,46.74Zm0,15.63c8.33,0,18.05-3.07,18.46-3.2.1,0,9.66-3,17.47-3,11.35,0,17.17,2.92,17.23,2.94a1.6,1.6,0,0,0,2.12-.6,1.46,1.46,0,0,0-.63-2c-.26-.13-6.48-3.31-18.72-3.31-8.33,0-18.05,3.07-18.46,3.2-.1,0-9.66,3-17.47,3-11.45,0-17.16-2.91-17.22-2.94a1.61,1.61,0,0,0-2.12.6,1.46,1.46,0,0,0,.62,2C13.57,59.19,19.79,62.37,32,62.37ZM32,78c8.33,0,18.05-3.07,18.46-3.2.1,0,9.66-3,17.47-3,11.35,0,17.17,2.92,17.23,2.94a1.6,1.6,0,0,0,2.12-.6,1.46,1.46,0,0,0-.63-2c-.26-.13-6.48-3.31-18.72-3.31-8.33,0-18.05,3.07-18.46,3.2-.1,0-9.66,3-17.47,3-11.45,0-17.16-2.91-17.22-2.94a1.61,1.61,0,0,0-2.12.6,1.46,1.46,0,0,0,.62,2C13.57,74.82,19.79,78,32,78Zm0,15.63c8.33,0,18.05-3.07,18.46-3.2.1,0,9.66-3,17.47-3,11.35,0,17.17,2.92,17.23,2.94a1.6,1.6,0,0,0,2.12-.6,1.46,1.46,0,0,0-.63-2c-.26-.13-6.48-3.31-18.72-3.31-8.33,0-18.05,3.07-18.46,3.2-.1,0-9.66,3-17.47,3-11.45,0-17.16-2.91-17.22-2.94a1.61,1.61,0,0,0-2.12.6,1.46,1.46,0,0,0,.62,2C13.57,90.44,19.79,93.62,32,93.62Z" transform="translate(-12.5 -6.38)"/><text x="0" y="102.23" fill="#000000" font-size="5px" font-weight="bold" font-family="'Helvetica Neue', Helvetica, Arial-Unicode, Arial, Sans-serif">Created by Kraig Morrisroe</text><text x="0" y="107.23" fill="#000000" font-size="5px" font-weight="bold" font-family="'Helvetica Neue', Helvetica, Arial-Unicode, Arial, Sans-serif">from the Noun Project</text></svg>